<?xml version="1.0" standalone="no"?>
<!DOCTYPE svg PUBLIC "-//W3C//DTD SVG 20010904//EN"
 "http://www.w3.org/TR/2001/REC-SVG-20010904/DTD/svg10.dtd">
<svg version="1.0" xmlns="http://www.w3.org/2000/svg"
 width="575.000000pt" height="431.000000pt" viewBox="0 0 575.000000 431.000000"
 preserveAspectRatio="xMidYMid meet">
<metadata>
Created by potrace 1.16, written by Peter Selinger 2001-2019
</metadata>
<g transform="translate(0.000000,431.000000) scale(0.014375,-0.010775)"
fill="#000000" stroke="none">
<path d="M29880 31005 c-8 -2 -71 -11 -140 -20 -479 -64 -855 -256 -1231 -626
-284 -282 -516 -612 -755 -1074 -195 -377 -308 -699 -454 -1285 -243 -981
-433 -2164 -760 -4725 -284 -2228 -370 -2733 -500 -2934 -178 -276 -710 -565
-1555 -846 -228 -76 -572 -177 -815 -239 l-135 -34 -27 -85 c-57 -178 -71
-276 -72 -487 -1 -164 3 -213 22 -306 103 -511 414 -964 1000 -1458 96 -82
155 -138 159 -153 13 -56 -6 -172 -51 -309 -26 -77 -54 -145 -63 -151 -23 -18
-212 -16 -342 2 -314 45 -641 192 -913 412 -43 34 -78 60 -78 57 0 -18 69
-131 125 -206 121 -161 295 -299 514 -408 114 -57 329 -132 433 -151 66 -12
66 -12 124 21 149 83 326 232 585 490 119 118 241 245 273 282 l57 66 -58 116
-57 116 32 167 c49 251 173 805 242 1083 72 289 179 693 188 707 14 21 170
116 268 164 206 100 431 157 649 166 l130 5 82 -124 c297 -454 643 -748 955
-812 197 -41 392 0 512 105 219 193 365 683 421 1414 32 409 28 1406 -5 1439
-12 12 -13 500 -1 676 7 107 11 121 48 195 161 318 458 628 824 860 95 61 358
200 364 193 2 -2 -1 -66 -5 -143 -34 -553 13 -1153 130 -1645 35 -144 40 -183
40 -281 0 -223 -33 -386 -110 -546 -62 -128 -147 -218 -260 -278 l-75 -39 59
-12 c196 -39 378 45 451 209 60 138 92 403 68 577 -7 52 -15 103 -19 115 -3
11 16 -18 41 -65 129 -236 365 -470 706 -698 152 -102 409 -246 418 -236 5 5
43 59 86 119 88 123 178 236 221 277 89 84 311 125 411 77 57 -28 85 -69 215
-324 59 -115 108 -205 108 -199 0 6 -7 134 -15 285 -25 475 -35 848 -35 1384
0 673 22 1223 65 1655 20 198 21 191 -19 144 -47 -55 -296 -281 -407 -370
-282 -226 -560 -370 -749 -389 -54 -5 -78 -2 -145 19 -204 65 -573 286 -975
584 -272 202 -692 644 -936 986 -157 221 -249 385 -292 521 l-38 120 8 120
c33 506 77 927 114 1114 52 254 237 848 324 1039 24 51 44 91 46 89 2 -2 -10
-50 -26 -108 -137 -473 -252 -1006 -306 -1419 -23 -171 -26 -566 -5 -650 57
-234 239 -386 516 -435 90 -15 332 -20 419 -9 l47 7 -63 22 c-290 101 -494
325 -593 648 -54 177 -68 300 -68 572 0 200 4 282 22 410 43 317 126 677 216
940 24 70 46 129 48 132 2 2 15 6 27 8 22 4 383 106 425 120 16 5 17 5 5 -3
-11 -9 -5 -15 30 -30 25 -11 81 -37 125 -57 250 -116 681 -180 940 -140 309
47 518 146 705 334 189 191 313 431 430 836 29 103 57 279 71 454 l13 155 60
-66 c280 -300 409 -674 393 -1133 -7 -210 -38 -387 -104 -608 -14 -48 -24 -90
-21 -93 4 -3 23 3 45 14 21 11 75 29 120 40 253 64 475 232 679 514 74 102
193 322 244 453 13 33 26 64 30 68 12 14 40 -107 40 -174 0 -191 -115 -397
-344 -616 -106 -102 -113 -111 -120 -157 -9 -58 -11 -59 103 43 214 193 406
445 480 633 88 220 55 387 -108 560 -128 137 -262 229 -680 470 -405 234 -587
365 -704 507 -82 98 -272 280 -401 383 -502 402 -1249 756 -1785 847 -108 18
-280 26 -331 16z m2064 -1755 c-197 -567 -714 -1036 -1474 -1338 -132 -52
-302 -109 -409 -137 -71 -18 -94 -15 -29 4 89 26 318 125 443 190 145 76 268
149 273 162 2 5 7 9 12 9 13 0 123 75 235 159 324 245 679 618 903 948 41 62
77 111 79 109 2 -1 -13 -49 -33 -106z m-3631 -2132 c16 -12 17 -36 11 -361
l-7 -348 -31 -13 c-39 -17 -73 -43 -66 -50 10 -10 80 -13 86 -4 3 5 1 15 -5
22 -8 9 -7 13 3 13 12 0 14 -94 13 -579 0 -419 -3 -578 -11 -578 -19 0 -158
83 -227 135 -139 106 -290 287 -359 430 -114 235 -166 523 -158 878 7 278 37
403 110 447 29 17 55 19 327 20 227 0 301 -3 314 -12z m3045 -5410 c11 -10
122 -219 122 -232 0 -2 -21 -9 -46 -15 -141 -36 -281 -166 -359 -332 l-23 -51
-66 112 c-74 125 -79 150 -51 268 35 146 110 231 232 262 47 11 172 4 191 -12z
m-2968 -1856 c-48 -333 -121 -588 -208 -731 -64 -105 -106 -147 -187 -187
l-75 -37 -112 6 c-134 7 -235 33 -327 85 -78 43 -205 137 -302 224 -69 61
-263 268 -257 274 2 1 35 -4 73 -12 395 -84 776 -63 1020 55 92 44 155 96 218
181 47 61 135 227 158 295 23 68 23 9 -1 -153z"/>
<path d="M31165 27411 c-171 -31 -399 -101 -506 -157 -28 -14 -30 -18 -15 -26
11 -6 21 -6 30 1 7 6 15 8 18 6 6 -7 990 -7 996 -1 2 3 -6 25 -17 51 -55 125
-93 145 -276 144 -78 0 -170 -8 -230 -18z"/>
<path d="M33140 27192 c-140 -70 -297 -188 -287 -214 4 -10 6 -10 6 1 1 11 4
11 19 0 15 -12 16 -12 4 2 -11 15 4 16 175 17 228 2 222 -1 205 105 -12 80
-27 127 -39 127 -5 0 -42 -17 -83 -38z"/>
<path d="M29743 26158 c8 -18 45 -95 83 -171 63 -125 71 -137 92 -132 33 8
394 -13 518 -30 60 -8 156 -27 214 -41 58 -13 130 -29 160 -35 34 -6 113 -39
203 -85 94 -48 147 -69 147 -61 0 25 -58 95 -112 135 -173 129 -491 216 -913
248 l-90 7 -153 99 c-85 54 -156 98 -158 98 -2 0 2 -15 9 -32z"/>
<path d="M14300 26059 c-334 -87 -633 -239 -930 -475 -125 -100 -373 -351
-486 -494 -191 -241 -337 -473 -480 -763 -82 -166 -92 -182 -159 -246 -74 -70
-164 -128 -245 -156 -25 -9 -135 -27 -245 -40 -670 -81 -1104 -217 -1375 -432
-178 -141 -264 -329 -232 -513 6 -37 17 -80 23 -94 l12 -26 61 68 c205 226
493 452 826 647 7 5 -29 -40 -80 -99 -320 -363 -530 -747 -586 -1069 -22 -125
-15 -370 16 -522 64 -324 185 -724 364 -1199 31 -82 56 -153 56 -157 0 -5 -20
-14 -45 -20 -25 -6 -47 -14 -49 -18 -6 -10 65 -275 78 -287 6 -6 44 -19 84
-29 81 -19 95 -33 107 -100 12 -74 58 -219 104 -336 90 -225 237 -446 364
-549 308 -250 824 -251 1241 -3 107 64 285 240 351 346 111 181 204 483 234
759 14 125 14 419 1 527 -6 46 -9 85 -7 87 11 11 280 78 387 96 167 29 442 31
578 4 51 -10 98 -24 105 -30 7 -7 18 -57 25 -112 29 -210 112 -476 215 -679
151 -300 361 -509 619 -616 455 -188 1056 -92 1345 214 211 223 363 658 380
1090 7 164 2 154 81 160 33 2 33 1 73 -93 l41 -95 4 -160 c3 -88 -1 -258 -8
-377 -7 -120 -11 -218 -8 -218 3 0 32 100 64 223 33 122 63 230 68 239 4 9 23
21 41 26 29 9 189 71 194 76 1 1 -26 80 -62 176 l-64 174 64 265 c197 823 242
1134 200 1377 -38 218 -166 503 -318 710 -24 33 -56 95 -71 139 -56 158 -161
332 -277 459 l-64 70 90 -48 c195 -102 415 -287 537 -451 114 -153 201 -369
215 -535 6 -64 8 -71 15 -45 5 17 11 80 15 140 25 483 -293 842 -872 985 -69
17 -112 36 -186 81 -187 115 -250 212 -464 714 -57 133 -131 296 -165 364
-207 415 -419 623 -727 718 -82 25 -101 27 -268 27 -156 0 -193 -3 -275 -23
-151 -38 -283 -87 -455 -170 -470 -227 -956 -591 -1556 -1161 -164 -156 -168
-169 64 180 261 391 366 523 538 676 305 271 619 480 919 611 85 37 71 41 -40
12z m-755 -2307 c105 -11 305 -30 445 -42 140 -12 264 -23 276 -25 38 -8 171
-102 250 -177 103 -98 159 -173 220 -295 l52 -102 31 44 c58 81 84 152 89 240
5 91 -12 141 -72 212 l-34 38 462 1 c271 0 520 5 605 12 l144 12 62 -40 c45
-29 65 -50 73 -73 8 -27 10 -28 11 -9 1 22 5 20 58 -25 248 -211 473 -622 574
-1048 13 -58 35 -113 60 -156 80 -134 155 -354 204 -594 25 -122 41 -235 34
-236 -2 0 -58 -6 -124 -13 -118 -12 -120 -12 -134 8 -31 45 -84 84 -173 128
-192 96 -364 150 -588 185 -158 24 -525 24 -695 -1 -372 -54 -704 -164 -871
-288 -73 -55 -99 -101 -116 -212 l-12 -78 -30 7 c-17 3 -83 13 -146 20 -175
22 -266 20 -495 -11 -91 -12 -245 -61 -364 -116 -46 -21 -86 -36 -89 -33 -3 3
-19 33 -36 68 -26 51 -40 68 -83 93 -104 62 -245 92 -478 101 -472 18 -960
-113 -1325 -356 -144 -95 -255 -192 -290 -255 -17 -28 -30 -49 -31 -46 -9 41
-24 349 -23 470 0 136 14 363 24 424 5 28 12 78 15 111 8 84 42 226 75 315 21
57 29 100 34 180 13 246 122 534 305 806 115 172 197 271 357 431 157 157 201
186 375 241 155 50 391 91 609 106 144 10 585 -3 765 -22z m2390 -2092 c153
-17 236 -30 247 -36 4 -3 17 -7 28 -9 67 -13 197 -61 274 -100 203 -105 291
-212 347 -421 18 -64 22 -109 23 -239 1 -187 -16 -298 -74 -475 -73 -224 -179
-402 -325 -545 -136 -134 -239 -188 -428 -227 -138 -29 -439 -31 -571 -5 -483
97 -749 363 -843 842 -38 193 -15 641 43 835 31 106 177 216 379 286 44 15 89
28 100 30 11 1 20 3 20 4 0 1 7 3 15 5 8 2 26 7 40 10 25 6 45 10 98 20 15 3
50 8 77 11 28 3 75 9 105 13 87 12 346 13 445 1z m-3191 -479 c97 -26 190 -75
228 -122 16 -19 44 -80 64 -135 271 -756 178 -1300 -272 -1600 -272 -181 -710
-262 -970 -180 -281 90 -538 383 -649 741 -48 154 -59 221 -58 365 0 219 49
343 197 498 222 232 600 400 1016 451 122 16 352 6 444 -18z"/>
<path d="M14622 22775 c-44 -37 -100 -126 -138 -219 -34 -83 -86 -274 -98
-357 l-7 -45 83 9 c94 10 424 2 598 -13 218 -20 452 -59 730 -120 74 -16 136
-21 278 -23 108 -1 182 2 182 7 0 6 7 1 16 -10 8 -10 13 -13 9 -6 -3 6 -2 12
4 12 5 0 12 -6 14 -12 4 -9 6 -7 6 3 2 39 -161 240 -280 344 -124 110 -320
229 -417 255 -65 17 -275 14 -368 -5 -182 -38 -390 -123 -573 -235 -46 -28
-85 -49 -86 -48 -2 2 60 57 137 123 440 376 423 360 392 363 -16 2 -55 -2 -89
-8 -192 -38 -353 -159 -497 -375 -34 -49 -58 -83 -55 -75 3 8 49 113 102 233
53 120 95 221 92 223 -2 3 -18 -7 -35 -21z"/>
<path d="M12590 22513 c0 -7 48 -92 173 -306 44 -76 78 -139 76 -142 -3 -2
-38 29 -79 69 -161 156 -261 216 -362 216 -269 0 -686 -285 -914 -622 -25 -38
-42 -73 -38 -80 4 -6 3 -8 -3 -5 -6 4 -13 0 -17 -8 -3 -8 -1 -17 4 -20 6 -4
10 -2 10 4 0 13 41 11 59 -3 11 -8 13 -8 7 2 -6 9 21 12 123 12 94 0 131 -3
134 -12 4 -8 6 -7 6 4 1 15 23 19 36 6 4 -3 46 7 93 23 275 94 722 208 970
249 l73 12 -6 42 c-26 156 -114 357 -196 449 -61 68 -149 134 -149 110z"/>
<path d="M15716 21422 c-8 -13 24 -53 36 -46 7 5 9 1 5 -9 -3 -9 -1 -19 5 -23
6 -4 8 -3 4 4 -3 6 -2 13 4 17 10 6 11 3 14 -45 0 -14 5 -31 10 -39 6 -10 6
-12 -2 -7 -16 10 -15 -7 0 -22 8 -8 -1 -6 -19 3 -105 52 -314 57 -460 11 -192
-62 -390 -257 -484 -478 -28 -65 -59 -155 -58 -168 0 -3 18 31 40 75 47 93
106 177 178 255 l50 55 -39 -78 c-59 -115 -61 -111 76 -103 l116 7 -8 -28 c-4
-15 -7 -57 -5 -92 6 -148 104 -244 251 -245 145 -1 260 115 260 261 0 29 -3
33 -25 33 -30 0 -33 16 -4 25 12 4 18 12 15 21 -3 8 -9 21 -12 29 -5 11 1 15
22 15 16 0 46 3 66 6 33 6 39 4 49 -19 8 -17 22 -27 46 -32 19 -3 41 -9 49
-12 20 -8 11 33 -26 112 -55 120 -140 203 -257 251 -73 30 -39 32 69 5 177
-46 332 -160 440 -325 65 -100 42 -33 -48 142 -98 188 -140 254 -215 336 -57
62 -135 121 -143 108z"/>
<path d="M12110 20774 c-231 -62 -408 -236 -489 -480 -36 -108 -40 -143 -7
-64 36 88 73 139 166 232 72 72 103 94 181 132 52 25 102 46 110 46 8 0 -15
-30 -51 -67 -39 -40 -77 -92 -93 -125 -15 -31 -27 -58 -27 -60 0 -2 51 0 113
3 61 4 113 6 115 4 2 -2 -4 -24 -12 -50 -31 -90 6 -214 82 -275 31 -25 43 -43
52 -81 14 -56 8 -55 135 -35 124 20 258 51 375 86 50 15 56 21 68 56 7 21 16
73 19 115 l6 76 -49 6 c-27 4 -102 9 -166 13 -65 4 -118 11 -118 15 0 26 212
46 283 26 34 -9 35 8 7 73 l-20 45 80 -81 c44 -45 80 -78 80 -74 0 4 -22 39
-49 77 -135 192 -308 329 -485 382 -82 25 -222 27 -306 5z"/>
<path d="M32954 25721 c-70 -11 -122 -14 -140 -9 -59 17 -212 -13 -322 -63
-78 -35 -205 -119 -285 -189 -32 -27 -56 -50 -53 -50 3 0 40 15 83 34 195 86
444 127 521 86 19 -10 -74 -145 -168 -244 -42 -45 -61 -70 -43 -58 43 30 112
112 181 215 54 81 63 90 202 183 80 53 149 101 155 105 11 11 7 11 -131 -10z"/>
<path d="M32275 24634 c-88 -11 -132 -25 -132 -42 0 -9 4 -22 9 -29 5 -6 6
-41 3 -77 l-6 -67 28 7 c54 13 89 32 192 105 l104 73 -29 12 c-34 14 -126 24
-169 18z"/>
<path d="M31595 24509 c-72 -38 -73 -45 -8 -53 32 -4 74 -9 93 -11 19 -3 68
-12 108 -21 40 -8 77 -14 83 -12 13 4 -84 71 -135 92 -21 9 -38 11 -41 5 -4
-5 -14 -9 -23 -8 -14 0 -14 2 2 8 18 7 19 8 1 14 -11 5 -23 1 -32 -10 -14 -17
-14 -17 -9 0 7 21 9 21 -39 -4z"/>
<path d="M30835 24320 c13 -45 104 -219 171 -328 143 -233 320 -449 399 -486
90 -43 186 3 345 166 42 43 131 110 255 193 228 153 250 172 124 106 -153 -81
-225 -107 -300 -110 -147 -5 -480 74 -644 154 -102 49 -200 132 -286 243 -70
89 -73 92 -64 62z"/>
<path d="M17740 20195 c-57 -18 -176 -90 -172 -105 1 -6 -2 -9 -8 -5 -6 4 -26
-7 -46 -24 -21 -19 -29 -31 -19 -31 8 0 15 5 15 10 0 6 5 10 11 10 5 0 7 -6 4
-12 -4 -7 0 -5 8 5 13 15 15 16 21 2 3 -8 11 -15 18 -15 9 0 8 3 -2 10 -8 5
-10 10 -4 10 6 0 14 -3 18 -7 12 -12 35 -12 30 0 -3 9 31 12 126 10 l130 -2 0
35 c0 51 -25 103 -55 114 -15 6 -27 10 -28 9 -1 0 -22 -7 -47 -14z"/>
<path d="M31737 20059 c-42 -39 -82 -79 -87 -89 -6 -12 -6 -37 2 -74 10 -54
13 -57 67 -88 181 -103 461 -306 534 -388 32 -35 37 -47 37 -90 0 -103 -73
-262 -200 -437 -43 -59 -90 -119 -104 -133 -25 -25 -92 -111 -194 -250 -116
-159 -175 -205 -347 -271 -94 -37 -121 -43 -187 -43 -65 -1 -81 2 -98 19 l-20
21 19 89 c11 50 23 106 26 125 3 19 15 69 26 112 10 42 19 80 19 85 0 5 -30
23 -67 40 -38 17 -157 73 -266 123 -109 50 -201 90 -203 88 -2 -3 77 -133 176
-290 98 -157 182 -298 186 -313 11 -43 73 -101 124 -115 62 -17 209 -7 292 19
172 55 364 244 478 471 18 36 34 67 37 70 5 6 72 -72 73 -85 0 -5 31 -45 69
-88 83 -93 225 -291 266 -369 l29 -56 -12 -110 c-14 -130 -45 -257 -70 -291
-11 -14 -54 -39 -107 -61 -94 -38 -122 -50 -245 -107 -41 -19 -93 -42 -115
-51 -22 -8 -44 -18 -50 -22 -5 -4 -63 -31 -127 -60 -65 -29 -118 -58 -118 -64
0 -7 6 -18 13 -26 6 -8 2 -6 -11 4 -22 19 -23 19 -75 -5 -163 -74 -600 -329
-564 -329 3 0 96 54 207 121 l201 121 62 -20 c34 -11 115 -33 179 -48 l117
-29 34 -75 c112 -244 153 -476 136 -768 -18 -295 -112 -708 -245 -1077 -25
-71 -47 -137 -48 -145 -2 -15 -19 -50 -59 -119 -22 -40 -66 -125 -256 -488
l-131 -251 44 -169 c143 -542 311 -990 556 -1488 299 -606 690 -1188 1081
-1607 97 -105 102 -108 143 -108 85 0 175 98 285 310 254 491 542 1531 711
2567 11 70 13 73 107 183 52 61 94 112 92 114 -2 1 -130 -7 -284 -20 -1065
-84 -1944 -101 -2232 -43 -40 8 -69 24 -132 75 -44 35 -78 70 -76 77 2 6 77
253 165 547 209 693 328 1084 347 1140 8 25 16 52 18 60 2 8 26 85 54 170 28
85 106 326 175 535 177 540 407 1206 622 1795 l118 324 -51 96 c-28 52 -121
232 -208 400 -87 168 -177 342 -201 386 l-44 82 -93 4 c-81 3 -99 8 -155 38
-106 56 -237 202 -325 363 -17 31 -34 57 -37 57 -3 0 -40 -32 -83 -71z m556
-6858 c113 -91 278 -132 462 -113 172 17 315 60 560 166 54 24 43 13 -130
-124 -281 -223 -519 -381 -740 -490 -148 -74 -205 -93 -205 -69 0 8 -9 75 -20
149 -23 153 -45 505 -35 557 l6 34 30 -38 c17 -21 49 -53 72 -72z"/>
<path d="M10727 19588 c-20 -16 -37 -60 -37 -96 l0 -27 132 3 c100 2 133 0
139 -10 7 -11 9 -10 9 1 0 11 3 11 17 0 13 -11 17 -11 20 -1 3 6 12 12 21 12
15 0 15 -2 2 -10 -12 -8 -10 -10 8 -10 16 0 21 4 16 13 -6 9 -4 9 8 -1 12 -10
18 -10 23 -1 6 8 10 8 16 -2 4 -7 11 -10 16 -6 9 9 -17 28 -29 21 -4 -3 -8 -1
-8 5 0 14 -115 77 -185 101 -66 23 -143 26 -168 8z"/>
<path d="M13449 19060 c0 -3 -1 -40 -1 -83 l-1 -78 -63 -63 c-35 -34 -64 -67
-64 -73 0 -22 203 -33 241 -12 11 5 57 13 103 16 l83 6 -57 52 c-31 29 -68 55
-82 58 -26 7 -99 85 -137 147 -11 19 -21 33 -22 30z"/>
<path d="M14288 18940 c-36 -19 -85 -76 -75 -86 3 -3 19 2 36 10 24 13 58 16
163 14 106 -2 146 2 196 16 41 12 59 22 50 27 -20 11 -222 39 -281 39 -31 -1
-66 -9 -89 -20z"/>
<path d="M15345 18469 c-28 -28 -94 -87 -148 -132 -309 -257 -673 -422 -1039
-471 -337 -45 -842 -50 -1118 -11 -19 3 26 -12 100 -33 74 -22 209 -64 300
-95 258 -88 335 -101 585 -101 234 0 299 10 428 64 209 87 484 304 729 576
119 132 223 254 216 254 -2 0 -26 -23 -53 -51z m-594 -496 c-72 -86 -197 -183
-310 -241 -118 -62 -196 -82 -314 -82 -124 0 -203 19 -322 75 -150 71 -150 69
34 83 277 21 578 84 816 170 61 22 116 40 123 41 7 1 -5 -20 -27 -46z"/>
<path d="M29717 18383 c-10 -3 -17 -9 -15 -13 11 -33 544 -547 555 -536 5 4
-30 217 -62 386 -15 74 -27 141 -27 148 -1 10 -46 12 -219 10 -119 -2 -215 0
-212 5 2 4 3 6 1 6 -2 -1 -11 -3 -21 -6z"/>
<path d="M27632 17444 c-5 -9 -3 -56 4 -113 47 -365 65 -870 39 -1116 -7 -66
-13 -122 -14 -124 -1 -3 -28 35 -61 83 -89 131 -147 200 -257 307 -277 271
-525 362 -773 284 -95 -31 -160 -61 -160 -75 0 -5 -6 -7 -14 -4 -12 5 -14 -7
-13 -65 2 -63 0 -70 -15 -65 -12 3 -18 0 -18 -11 0 -12 7 -14 28 -9 21 4 24 3
12 -5 -8 -6 -11 -11 -6 -11 5 0 3 -7 -4 -15 -7 -8 -16 -12 -21 -9 -5 3 -9 0
-9 -5 0 -13 23 -15 34 -3 7 7 11 8 37 11 8 1 7 7 -2 19 -12 16 -12 16 5 1 16
-15 23 -14 84 3 96 28 279 35 360 14 230 -59 401 -247 461 -509 l20 -82 -22
30 c-44 62 -151 165 -192 185 -57 28 -109 25 -181 -9 -408 -193 -1089 -1578
-1484 -3016 -127 -462 -222 -948 -265 -1355 -26 -242 -31 -611 -11 -738 28
-174 68 -252 150 -292 l45 -21 -30 -67 c-78 -172 -162 -579 -183 -877 -3 -38
-10 -119 -15 -180 -27 -294 -35 -566 -35 -1235 -1 -952 7 -1258 32 -1252 8 1
11 -2 7 -8 -3 -6 -11 -8 -16 -5 -5 4 -9 -1 -9 -9 0 -16 35 -40 48 -32 4 3 9
-12 10 -32 2 -30 0 -34 -9 -19 -5 9 -8 21 -5 26 3 4 -6 13 -20 20 l-25 11 3
-67 c2 -39 8 -66 13 -64 6 1 9 7 7 13 -1 5 2 6 8 3 8 -5 7 -13 -2 -28 -8 -12
-15 -39 -17 -60 l-3 -37 712 0 c391 0 716 -3 722 -6 7 -5 8 -2 2 7 -4 8 -8 44
-7 81 1 37 -2 70 -6 72 -4 3 -6 27 -4 53 3 26 -7 275 -21 553 -46 906 -83
1789 -111 2673 -11 381 -12 464 -1 495 21 59 236 559 381 887 422 955 796
1678 878 1699 69 17 299 36 437 36 345 0 653 -63 1005 -207 88 -35 174 -71
190 -78 63 -29 409 -160 625 -237 221 -78 298 -104 530 -175 63 -19 135 -41
160 -49 61 -18 135 -39 193 -54 53 -14 54 -15 37 -130 -45 -323 -124 -1295
-161 -1990 -15 -284 -26 -838 -17 -854 4 -7 8 -105 9 -217 1 -112 6 -283 10
-379 5 -96 15 -366 24 -600 23 -635 24 -650 47 -650 12 0 18 -7 18 -22 0 -21
-1 -21 -13 -3 -13 17 -14 17 -18 -1 -3 -10 -1 -75 3 -144 5 -69 9 -152 9 -186
0 -64 -2 -62 50 -55 3 1 9 247 12 549 10 778 33 1329 78 1857 12 132 22 267
23 300 2 33 5 67 8 75 3 8 16 98 28 200 38 327 112 726 177 957 l17 62 -48
198 c-71 292 -224 942 -231 986 l-7 37 138 1 c104 1 130 3 104 10 -75 20 -129
31 -132 28 -2 -1 -12 2 -23 8 -11 6 -36 14 -55 17 -19 3 -82 19 -140 37 -58
17 -121 35 -140 41 -71 20 -458 152 -545 185 -245 93 -412 173 -790 374 -386
206 -582 288 -784 328 -133 27 -414 44 -672 39 l-216 -3 9 35 c29 106 132 238
241 310 34 22 68 45 75 51 10 8 85 10 260 6 262 -5 362 -18 488 -61 66 -23
307 -127 369 -160 17 -9 33 -16 38 -16 10 0 363 -158 502 -225 123 -59 136
-65 387 -176 98 -43 180 -79 183 -79 2 0 46 -20 97 -44 182 -86 395 -174 546
-226 150 -52 153 -54 173 -92 11 -22 23 -37 26 -34 17 17 -120 231 -218 340
-61 67 -62 69 -50 100 7 17 14 38 16 47 2 9 62 149 135 310 72 162 133 304
136 317 5 23 3 23 -71 20 -57 -2 -74 0 -70 9 11 30 -34 -14 -105 -103 -364
-452 -416 -513 -436 -514 -37 0 -84 12 -84 22 0 5 40 78 89 162 49 84 98 168
109 187 10 19 83 144 162 279 79 135 154 265 168 290 14 25 45 78 69 119 24
40 42 75 40 77 -2 2 -118 5 -258 5 l-254 2 -113 -129 c-63 -71 -127 -145 -144
-164 -51 -57 -369 -457 -448 -563 -40 -54 -78 -96 -84 -94 -6 2 -72 23 -146
46 l-135 43 0 252 c0 383 -50 874 -90 890 -9 3 -12 0 -9 -8 3 -7 -2 -13 -11
-13 -9 0 -14 6 -11 13 4 10 -26 14 -131 16 -108 2 -137 0 -141 -11 -3 -7 -2
-102 1 -210 8 -222 36 -495 66 -621 11 -47 18 -86 16 -88 -5 -5 -209 34 -355
69 -69 16 -152 42 -185 59 -107 52 -194 163 -211 269 -4 22 -9 41 -12 41 -2 0
-43 -35 -90 -77 -177 -162 -314 -282 -517 -456 -115 -99 -221 -189 -235 -201
-25 -21 -141 -116 -170 -139 -359 -282 -710 -540 -761 -559 -9 -3 -81 -49
-160 -101 -79 -52 -157 -102 -174 -111 -39 -21 -69 -40 -75 -46 -26 -29 -557
-306 -567 -296 -3 2 -29 -7 -59 -20 l-54 -24 0 23 c0 12 22 132 50 267 234
1158 608 2138 1040 2732 104 143 274 335 304 343 11 4 30 10 41 15 11 5 49 20
85 34 133 50 306 117 335 130 17 8 41 17 55 21 73 22 647 264 720 304 20 11
150 205 218 326 60 107 135 272 177 386 l25 70 -57 -3 -57 -3 -66 -150 c-98
-222 -191 -413 -266 -542 -37 -62 -68 -113 -69 -111 -2 2 -6 53 -9 113 -23
413 -54 712 -97 945 -11 58 -20 113 -20 122 0 10 -5 20 -10 23 -5 4 -7 11 -4
16 4 5 1 9 -5 9 -6 0 -9 4 -6 8 3 5 -1 9 -9 9 -8 0 -15 -4 -15 -9 0 -4 -27 -8
-60 -8 -55 0 -78 11 -47 23 9 4 9 6 0 6 -7 1 -16 -6 -21 -15z"/>
<path d="M36490 17229 c0 -5 6 -7 13 -4 18 10 -35 -34 -57 -46 -14 -9 -17 -8
-11 3 3 7 0 5 -9 -6 -14 -18 -15 -18 -13 3 1 11 6 21 12 21 7 0 12 7 12 15 0
12 -3 12 -15 2 -8 -6 -25 -11 -36 -10 -15 1 -16 0 -3 -3 9 -3 17 -10 17 -15 0
-14 -154 -11 -168 3 -10 10 -17 10 -32 0 -16 -10 -22 -8 -35 10 -8 13 -15 17
-15 11 0 -7 5 -15 10 -18 6 -4 8 -11 5 -16 -4 -5 3 -9 14 -9 11 0 23 5 26 10
3 6 10 10 16 10 5 0 9 -4 9 -10 0 -5 -5 -9 -12 -7 -15 3 -18 -23 -5 -40 5 -7
7 -18 4 -25 -3 -7 -6 -4 -6 7 -1 17 -3 18 -12 5 -9 -13 -10 -12 -5 3 3 11 2
16 -4 12 -14 -8 -13 -35 1 -35 6 0 9 -6 6 -14 -3 -8 -3 -17 1 -21 4 -4 7 -10
7 -13 3 -34 18 -82 27 -82 5 0 8 -6 5 -14 -3 -8 -3 -17 1 -21 4 -4 8 -11 8
-16 1 -5 2 -10 3 -11 2 -2 5 -14 7 -28 3 -13 9 -29 14 -34 4 -4 6 -15 3 -22
-3 -8 0 -14 7 -14 6 0 8 5 4 12 -4 7 -3 8 5 4 9 -6 9 -11 1 -21 -7 -8 -7 -15
-1 -19 7 -5 34 50 30 63 0 2 4 7 10 10 6 4 12 19 13 33 1 15 6 25 10 22 7 -4
97 170 99 191 0 6 6 17 13 25 21 25 31 44 18 36 -8 -5 -10 -2 -6 8 3 9 11 13
18 9 6 -3 8 -3 4 2 -4 4 -1 14 7 22 19 19 19 33 0 33 -8 0 -15 -5 -15 -11z"/>
<path d="M15885 16304 c-326 -263 -793 -513 -1135 -607 -285 -79 -575 -81
-896 -7 -91 21 -854 354 -912 397 -18 14 -35 23 -38 20 -7 -7 26 -1138 33
-1151 25 -41 209 -297 266 -371 376 -482 700 -735 941 -735 75 0 116 11 231
63 296 132 823 448 1479 886 l159 106 -6 270 c-17 739 -31 1195 -36 1194 -3 0
-42 -30 -86 -65z"/>
<path d="M5428 15100 c-89 -15 -268 -87 -268 -108 0 -7 441 -5 448 2 2 2 6 29
9 60 l6 56 -74 -1 c-41 -1 -95 -5 -121 -9z"/>
<path d="M16275 14740 c-22 -10 -75 -35 -119 -54 l-78 -36 6 -53 c3 -28 15
-173 27 -320 l21 -269 41 -71 c50 -90 166 -338 241 -519 44 -106 59 -157 68
-225 19 -155 15 -696 -7 -843 -2 -14 -7 -50 -10 -80 -9 -85 -14 -117 -36 -235
-12 -60 -23 -121 -25 -135 -3 -14 -7 -33 -10 -42 -3 -9 -7 -25 -9 -35 -57
-263 -194 -586 -345 -812 -97 -145 -253 -312 -380 -407 -268 -200 -607 -304
-997 -304 -461 0 -834 153 -1158 475 -289 287 -541 732 -709 1250 -20 61 -43
130 -51 155 -35 108 -130 508 -154 655 -6 33 -13 73 -15 89 -3 16 -8 50 -12
75 -4 25 -8 54 -10 65 -2 10 -6 44 -10 75 -3 31 -8 58 -11 61 -5 5 4 -139 11
-177 2 -10 7 -45 11 -78 11 -84 12 -95 19 -142 4 -23 9 -55 11 -70 6 -44 56
-312 69 -378 6 -29 -28 74 -98 293 l-35 107 0 -120 c-1 -155 15 -442 39 -720
52 -579 154 -1193 285 -1711 25 -98 53 -207 61 -241 9 -35 19 -63 24 -63 4 0
7 -8 6 -17 -1 -17 17 -18 217 -23 120 -3 221 -3 223 -1 2 2 -2 11 -9 19 -7 9
-7 13 -1 9 16 -9 48 29 38 45 -5 7 -10 21 -11 31 -2 10 -62 206 -134 435 -71
229 -148 473 -169 542 -21 69 -66 213 -100 320 -33 107 -63 204 -66 215 -3 11
36 -63 87 -165 143 -283 291 -492 466 -661 362 -349 776 -478 1325 -414 736
86 1261 491 1539 1187 38 96 100 295 113 363 3 17 14 73 25 126 43 212 56 375
56 694 0 261 -5 352 -25 498 -6 44 -10 81 -7 83 10 11 173 -488 238 -731 64
-238 61 -220 44 -304 -90 -442 -281 -1007 -506 -1500 -49 -107 -86 -198 -82
-204 3 -6 2 -7 -4 -4 -9 6 -38 -41 -30 -49 1 -2 83 -4 180 -4 107 -1 175 -5
171 -11 -3 -5 -10 -7 -15 -4 -5 4 -9 2 -9 -3 0 -6 7 -12 15 -16 8 -3 14 -2 13
2 -1 4 13 39 31 77 72 153 199 576 241 800 34 185 64 452 73 650 2 45 4 39 25
-65 29 -146 28 -140 42 -235 7 -44 14 -89 16 -100 2 -11 6 -40 9 -65 4 -25 10
-79 15 -120 17 -133 19 -146 26 -226 23 -273 31 -435 33 -715 2 -338 -8 -544
-42 -907 l-22 -228 455 -13 c914 -24 1803 -74 2630 -147 l285 -25 177 -107
178 -107 0 -51 c0 -139 -101 -1502 -170 -2294 -56 -633 -180 -1899 -194 -1982
-4 -20 50 -136 229 -491 l235 -464 0 -117 0 -116 140 0 c137 0 141 -1 149 -22
4 -13 68 -293 141 -623 74 -330 136 -603 139 -607 3 -3 46 13 95 37 50 25 92
43 94 41 1 -2 -131 -72 -295 -156 -164 -84 -302 -156 -307 -160 -4 -5 0 -34
11 -67 16 -47 24 -58 41 -57 12 1 19 -3 16 -7 -3 -5 -9 -7 -14 -4 -17 10 -23
-18 -7 -30 9 -7 13 -16 9 -20 -4 -5 -1 -5 6 -1 7 4 10 11 7 16 -10 16 15 22
104 23 57 1 87 -2 83 -8 -3 -6 -1 -6 4 -2 5 5 9 14 9 20 0 7 12 12 27 13 15 1
25 -3 22 -7 -2 -4 -12 -5 -21 -2 -11 4 -14 3 -9 -5 4 -7 1 -15 -8 -18 -9 -3
-13 -10 -10 -16 3 -5 13 -4 22 4 15 12 16 11 4 -4 -8 -9 -11 -21 -8 -27 4 -5
-1 -16 -9 -25 -9 -8 -16 -19 -15 -23 0 -4 -22 -62 -49 -128 -61 -147 -146
-397 -167 -485 -8 -36 -17 -73 -20 -82 -5 -17 133 -18 2805 -18 2361 0 2811 2
2811 14 0 7 -63 278 -139 602 -110 463 -154 630 -205 782 -162 472 -372 994
-649 1614 l-116 258 -30 202 c-68 450 -202 1449 -225 1673 -16 164 -23 198
-39 188 -9 -5 -9 -3 -2 8 14 19 13 61 -1 66 -7 2 -12 -17 -13 -54 -2 -63 20
-583 49 -1178 10 -209 17 -381 16 -383 -2 -1 -109 210 -239 470 -785 1574
-1879 3512 -2966 5253 l-156 250 -5 523 -5 523 -120 55 c-181 84 -491 205
-710 279 -279 94 -515 159 -1060 296 -772 194 -1035 272 -1385 411 -472 189
-738 354 -1109 687 -366 329 -808 842 -1086 1259 -38 56 -71 102 -74 101 -3 0
-24 -9 -46 -19z m6185 -10920 c47 -12 122 -39 166 -61 88 -43 204 -139 204
-168 0 -10 -32 -159 -70 -331 -39 -172 -73 -324 -76 -339 -4 -20 -3 -23 5 -11
6 8 11 10 11 4 0 -6 -7 -17 -15 -24 -8 -7 -15 -20 -15 -29 0 -18 -75 -127
-105 -151 -17 -14 -18 -13 -8 5 5 11 9 27 8 35 -1 8 2 20 6 25 8 12 5 71 -5
103 -16 48 -51 48 -406 0 -85 -11 -163 -20 -172 -20 -10 0 -18 -2 -18 -6 0 -4
-19 -6 -42 -3 -40 3 -42 2 -28 -14 14 -17 13 -17 -8 -6 -20 11 -23 10 -20 -6
2 -12 -4 -18 -20 -19 -12 -1 -25 3 -28 7 -3 5 -10 9 -15 9 -6 0 -8 -4 -5 -8 2
-4 -38 -9 -90 -9 -87 -2 -96 0 -103 18 -14 38 -34 -5 -33 -71 0 -33 -3 -60 -8
-60 -14 0 -21 18 -9 25 6 4 9 26 8 49 -2 23 1 48 6 56 6 10 4 12 -8 7 -10 -4
-17 -2 -17 4 0 6 9 9 20 6 11 -3 18 -1 14 4 -3 5 -12 9 -20 9 -33 0 2 114 70
227 31 50 90 167 132 260 121 268 151 321 224 394 87 88 138 108 280 108 72 1
132 -5 190 -19z m1115 -256 c136 -26 279 -105 370 -206 59 -65 139 -178 170
-239 21 -40 37 -53 142 -114 245 -144 406 -263 439 -327 27 -51 44 -175 44
-312 l0 -131 49 -18 c71 -25 164 -91 248 -174 l73 -73 0 -64 c0 -85 -24 -207
-67 -341 -42 -132 -119 -321 -145 -354 -10 -13 -18 -30 -18 -37 0 -11 -20 -14
-89 -14 -166 0 -287 60 -346 172 l-28 54 42 92 c22 51 41 94 41 95 0 2 -26 -5
-57 -16 -43 -14 -75 -18 -124 -15 -161 12 -288 125 -434 385 l-57 103 26 107
c15 60 29 117 33 128 3 11 -20 -8 -50 -41 -31 -34 -72 -69 -92 -78 -33 -16
-41 -16 -132 0 -265 45 -537 159 -562 236 -13 38 -22 217 -14 266 l5 32 359 0
c228 0 360 4 364 10 4 7 -120 11 -362 12 l-368 3 364 5 364 5 -42 29 c-23 16
-44 26 -48 22 -3 -3 0 -6 7 -6 7 0 10 -3 6 -7 -4 -4 -16 3 -28 17 -11 14 -16
19 -12 11 4 -9 3 -12 -4 -7 -6 3 -13 2 -17 -4 -3 -6 4 -10 16 -10 21 0 21 -1
6 -18 -10 -10 -24 -19 -32 -19 -17 0 -15 31 3 49 18 18 15 33 -3 18 -13 -11
-14 -10 -9 5 5 13 4 16 -4 11 -7 -4 -12 -3 -12 3 0 7 -8 7 -23 2 -43 -17 -118
5 -86 24 7 5 10 4 7 -1 -4 -5 5 -10 18 -10 13 -1 24 3 24 9 0 6 -3 7 -6 4 -4
-3 -15 -2 -26 4 -14 8 -24 7 -36 -3 -12 -10 -14 -10 -8 0 5 9 -4 12 -38 10
-25 0 -46 -5 -46 -9 0 -5 -8 -6 -17 -2 -15 5 -14 3 2 -10 17 -13 21 -13 25 -1
4 11 7 10 16 -4 11 -16 7 -18 -42 -18 -30 0 -54 4 -54 9 0 5 7 7 15 3 9 -3 15
0 15 9 0 12 -5 12 -25 3 -13 -6 -21 -16 -18 -22 4 -6 -2 -4 -12 4 -11 9 -16
10 -11 2 5 -8 1 -11 -16 -8 -13 2 -36 -4 -53 -12 -28 -15 -34 -17 -52 -21 -9
-2 18 -21 30 -21 5 0 6 4 2 9 -3 5 -1 12 4 15 5 4 12 2 15 -3 4 -5 2 -13 -4
-16 -8 -5 -8 -11 -1 -19 8 -9 7 -13 -4 -13 -8 0 -12 3 -10 6 2 4 -10 14 -26
23 -16 10 -29 13 -29 8 0 -6 -3 -9 -7 -9 -19 3 -33 -2 -33 -11 0 -5 7 -6 17
-3 10 4 14 2 9 -5 -3 -6 -15 -10 -26 -9 -10 1 -16 6 -12 12 3 5 -2 3 -13 -5
-17 -14 -18 -11 -11 88 4 56 13 157 21 225 7 67 10 125 6 128 -3 4 -50 14
-103 24 -57 10 -98 22 -98 28 -1 59 36 347 44 347 6 0 39 -5 74 -10 48 -8 81
-7 145 4 45 9 98 17 117 18 69 7 247 -3 325 -18z m-1090 -864 c4 -6 12 -7 18
-3 7 4 5 -2 -3 -12 -14 -17 -14 -18 9 -6 15 9 21 9 16 2 -12 -21 -107 -69
-123 -63 -10 3 -13 1 -8 -6 5 -8 -9 -19 -41 -33 -26 -12 -53 -22 -59 -23 -6
-1 -23 -9 -37 -19 -14 -9 -105 -51 -202 -92 -123 -53 -183 -74 -198 -69 -89
27 -238 137 -222 164 4 6 -1 10 -9 10 -8 0 -18 5 -22 12 -5 7 -2 9 7 4 8 -4 5
0 -6 9 -11 9 -20 21 -20 28 -1 7 -5 11 -10 10 -20 -3 -13 61 9 79 19 16 55 17
458 18 285 0 439 -4 443 -10z"/>
<path d="M21597 2688 c-3 -10 88 -12 439 -10 281 1 444 6 444 12 0 16 -877 13
-883 -2z"/>
<path d="M12439 14363 c-232 -305 -718 -901 -980 -1199 -435 -497 -570 -631
-790 -781 -252 -172 -436 -253 -1009 -443 -652 -216 -928 -333 -1327 -563
l-73 -42 0 -585 0 -586 -902 -1491 c-497 -820 -906 -1488 -910 -1484 -10 9
-257 795 -333 1056 -115 400 -116 407 -114 771 l1 314 -126 101 c-70 56 -128
100 -130 98 -2 -2 2 -92 9 -199 12 -183 12 -201 -6 -290 -74 -363 -197 -717
-363 -1045 -233 -459 -512 -803 -863 -1064 -56 -42 -114 -84 -130 -93 l-29
-17 -68 942 -69 942 -40 67 c-21 38 -41 68 -42 68 -8 0 -170 -286 -251 -444
-399 -778 -703 -1696 -874 -2646 -46 -256 -93 -580 -88 -610 2 -17 83 -58 425
-217 l421 -196 47 -131 c67 -187 277 -714 383 -961 463 -1082 960 -1993 1426
-2616 l109 -146 255 -6 c140 -4 424 -7 629 -7 l375 0 114 107 c412 387 1003
1094 1377 1649 l108 160 -50 245 c-384 1880 -691 3810 -831 5233 l-11 109 111
167 c105 159 113 168 148 174 21 3 197 26 392 51 1123 142 2479 268 3758 349
199 12 364 25 367 28 3 3 -8 115 -25 249 -35 289 -101 871 -130 1159 -34 330
-38 363 -45 450 -3 36 -10 117 -16 180 -6 63 -13 153 -15 200 -3 47 -9 126
-14 175 -8 97 -6 577 4 635 3 19 8 60 11 90 4 30 8 64 11 75 4 19 9 48 19 110
12 71 54 257 78 345 42 155 141 421 159 428 4 2 8 12 8 22 0 22 78 182 155
315 59 102 168 259 228 329 l34 38 7 -273 c7 -287 7 -290 31 -489 21 -169 50
-346 80 -495 10 -44 21 -100 26 -125 9 -42 20 -83 71 -255 48 -165 77 -244
129 -362 11 -24 19 -46 19 -49 0 -15 109 -229 163 -319 205 -343 451 -564 745
-669 153 -55 229 -69 372 -69 153 -1 249 16 370 66 163 67 287 155 441 314
196 202 352 447 513 806 53 117 177 456 192 522 1 6 19 69 39 140 l36 130 -7
215 c-3 118 -7 216 -9 218 -2 2 -6 -39 -10 -90 -61 -820 -351 -1444 -810
-1743 -147 -96 -269 -148 -455 -192 -147 -35 -433 -44 -577 -18 -475 85 -830
427 -1066 1026 -178 450 -287 1088 -287 1674 0 110 -3 262 -7 338 -5 120 -8
137 -23 137 -13 0 -257 52 -396 85 -18 4 -35 -13 -95 -92z"/>
<path d="M28747 13225 c-22 -170 -28 -240 -37 -471 -20 -475 27 -1253 110
-1829 11 -77 21 -146 22 -152 2 -15 18 -18 18 -3 0 6 5 10 11 10 8 0 8 -4 0
-14 -9 -11 -9 -15 1 -20 7 -3 3 -3 -9 -1 -20 5 -21 3 -13 -32 5 -21 9 -39 10
-40 0 -2 0 -4 1 -5 1 -3 6 -57 8 -90 2 -27 91 -26 98 1 6 22 33 17 33 -5 0 -8
5 -14 10 -14 10 0 14 15 10 35 -4 22 -11 82 -12 107 -1 15 -4 25 -8 23 -3 -2
-6 15 -6 38 -1 43 -11 126 -19 164 -3 12 -7 41 -10 65 -3 24 -21 158 -40 298
-90 669 -154 1398 -156 1767 0 76 -4 158 -8 183 l-7 45 -7 -60z"/>
<path d="M28520 13228 c0 -4 -27 -111 -59 -240 -137 -539 -262 -1149 -371
-1807 -22 -134 -42 -264 -44 -290 -2 -25 -5 -50 -6 -56 -5 -20 0 -35 11 -35 7
0 9 10 7 25 -4 17 -1 25 9 25 8 0 11 -4 8 -10 -3 -5 -1 -10 5 -10 6 0 4 -10
-6 -24 -10 -16 -21 -23 -32 -19 -9 3 -14 3 -10 -2 4 -4 2 -15 -5 -24 -10 -14
-10 -14 3 -5 27 20 49 24 43 9 -3 -8 -9 -13 -13 -10 -13 8 -40 -29 -30 -44 4
-8 6 -21 3 -30 -2 -9 3 -4 12 12 8 15 20 27 25 27 5 0 12 16 16 35 3 19 10 35
15 35 5 0 6 -12 3 -27 -4 -16 -7 -32 -8 -38 0 -5 -10 -13 -21 -16 -13 -4 -6
-7 19 -6 33 0 36 2 22 13 -10 7 -12 14 -6 16 5 1 12 13 15 26 2 12 7 27 10 33
4 5 -1 19 -10 29 -12 14 -13 20 -4 26 8 4 10 3 5 -4 -4 -7 -3 -12 2 -12 13 0
23 54 11 58 -5 2 -9 8 -9 13 0 6 5 7 10 4 6 -3 10 -4 10 -1 0 3 20 158 45 343
85 635 181 1219 285 1731 27 135 47 248 45 251 -3 2 -5 2 -5 -1z"/>
<path d="M4187 10114 c-118 -142 -268 -396 -292 -496 l-7 -26 84 19 c45 10
129 28 185 40 56 12 106 25 111 28 10 7 -3 397 -16 465 l-7 40 -58 -70z"/>
<path d="M30947 4973 c-2 -5 -3 -19 -2 -33 2 -14 6 -72 9 -130 7 -133 16 -201
25 -195 4 2 8 -2 8 -10 0 -8 -4 -12 -9 -9 -6 4 -7 -23 -3 -62 3 -38 24 -276
46 -529 74 -861 171 -1844 271 -2752 l42 -383 738 0 c406 0 738 3 738 7 0 4
-54 196 -120 427 -282 995 -568 2122 -781 3085 -83 373 -77 353 -92 344 -8 -4
-8 -2 1 9 9 12 10 22 2 44 -6 16 -11 30 -11 32 4 14 -1 32 -8 28 -5 -4 -7 8
-4 25 2 17 1 29 -4 26 -4 -3 -8 9 -7 26 0 18 -4 38 -9 45 -7 9 -103 12 -418
12 -224 0 -410 -3 -412 -7z"/>
<path d="M29549 4721 c-1 -3 -1 -10 1 -16 1 -5 -4 -4 -11 3 -10 9 -63 12 -194
12 l-180 0 -1 -30 c-1 -16 2 -30 7 -30 5 0 8 -6 7 -12 -2 -7 3 -12 10 -10 8 1
11 -2 7 -8 -3 -6 -11 -8 -16 -5 -10 7 -12 -6 -3 -29 3 -9 11 -13 18 -9 6 4 5
-1 -3 -10 -8 -11 -11 -29 -7 -49 3 -18 8 -58 11 -88 3 -30 57 -455 120 -945
63 -490 164 -1277 225 -1751 60 -473 110 -864 110 -867 0 -4 153 -7 340 -7
265 0 340 3 340 13 0 6 -16 91 -35 187 -19 96 -106 537 -194 980 -88 443 -223
1131 -301 1530 -77 399 -144 732 -147 740 -3 8 -7 30 -9 48 -4 46 -12 56 -32
40 -15 -12 -16 -11 -4 4 8 9 10 23 6 29 -4 7 -3 9 3 6 6 -4 9 3 8 16 -1 12 -3
30 -4 40 0 10 -5 16 -9 13 -4 -2 -8 10 -8 27 -1 29 -7 71 -18 122 -3 11 -5 26
-5 33 -1 8 -6 10 -13 6 -10 -6 -10 -5 -1 7 10 13 10 16 -2 16 -8 0 -16 -3 -16
-6z"/>
<path d="M32525 4020 c-4 -7 -2 -16 5 -20 8 -5 7 -9 -4 -13 -10 -4 -16 -1 -16
8 0 8 -4 15 -10 15 -15 0 -12 -16 5 -30 17 -14 21 -35 5 -25 -5 3 -10 1 -10
-4 0 -6 3 -11 8 -11 4 0 8 -17 9 -38 3 -46 25 -118 36 -114 4 1 25 2 47 2 29
0 40 4 40 15 0 8 7 15 16 15 15 0 15 2 0 24 -9 14 -12 27 -7 31 11 6 9 31 -4
42 -4 4 -5 2 -1 -4 5 -10 -3 -13 -31 -13 -21 0 -49 -3 -63 -6 -21 -5 -22 -4
-10 6 13 10 13 11 -2 6 -22 -7 -24 16 -4 33 9 7 13 26 11 47 -3 39 -10 51 -20
34z"/>
<path d="M32655 3800 c-13 -12 -36 -20 -66 -21 l-46 -3 8 -40 c23 -122 224
-980 345 -1476 73 -300 188 -740 285 -1094 43 -159 79 -290 79 -292 0 -2 47
-4 104 -4 l104 0 -34 128 c-46 172 -285 1075 -341 1292 -25 96 -121 471 -212
833 -92 362 -171 654 -175 650 -5 -4 -6 4 -4 20 6 29 -1 34 -21 15 -11 -10
-13 -10 -7 0 10 17 3 15 -19 -8z"/>
</g>
</svg>
